<?xml version="1.0" encoding="utf-8"?>
<!-- Generator: Adobe Illustrator 16.0.0, SVG Export Plug-In . SVG Version: 6.00 Build 0)  -->
<!DOCTYPE svg PUBLIC "-//W3C//DTD SVG 1.1//EN" "http://www.w3.org/Graphics/SVG/1.1/DTD/svg11.dtd">
<svg version="1.1" id="Layer_1" xmlns="http://www.w3.org/2000/svg" xmlns:xlink="http://www.w3.org/1999/xlink" x="0px" y="0px"
	 width="144px" height="144px" viewBox="0 0 144 144" enable-background="new 0 0 144 144" xml:space="preserve">
<path fill="#DB2D24" d="M93.6,88.59c0,2.768-2.313,5.01-5.166,5.01H55.566c-2.854,0-5.167-2.242-5.167-5.01V55.411
	c0-2.768,2.313-5.011,5.167-5.011h32.867c2.854,0,5.166,2.243,5.166,5.011V88.59z"/>
<path fill="#EDC003" d="M73.311,64.574l10.488,10.488c0.725,0.724,0.725,1.896,0,2.613l-1.742,1.743
	c-0.726,0.725-1.898,0.725-2.615,0L72,71.992l-7.435,7.433c-0.725,0.727-1.897,0.727-2.614,0l-1.75-1.741
	c-0.725-0.727-0.725-1.898,0-2.616l10.488-10.487C71.413,63.849,72.586,63.849,73.311,64.574z"/>
</svg>
